<mxfile host="Electron" modified="2024-03-12T01:08:08.795Z" agent="Mozilla/5.0 (Windows NT 10.0; Win64; x64) AppleWebKit/537.36 (KHTML, like Gecko) draw.io/24.0.4 Chrome/120.0.6099.109 Electron/28.1.0 Safari/537.36" etag="7-5zrOYTYOir0ho7rBki" version="24.0.4" type="device">
  <diagram name="Страница — 1" id="9xa7tTSJgd2_Glu7l7I9">
    <mxGraphModel dx="2302" dy="1364" grid="1" gridSize="10" guides="1" tooltips="1" connect="1" arrows="1" fold="1" page="1" pageScale="1" pageWidth="827" pageHeight="1169" math="0" shadow="0">
      <root>
        <mxCell id="0" />
        <mxCell id="1" parent="0" />
        <mxCell id="XBxHbqEH50NBFgfwNpSP-52" value=":Корзина" style="shape=umlLifeline;perimeter=lifelinePerimeter;whiteSpace=wrap;html=1;container=1;dropTarget=0;collapsible=0;recursiveResize=0;outlineConnect=0;portConstraint=eastwest;newEdgeStyle={&quot;curved&quot;:0,&quot;rounded&quot;:0};" vertex="1" parent="1">
          <mxGeometry x="1370" y="120" width="100" height="960" as="geometry" />
        </mxCell>
        <mxCell id="XBxHbqEH50NBFgfwNpSP-61" value="Расчет цены" style="html=1;align=left;spacingLeft=2;endArrow=block;rounded=0;edgeStyle=orthogonalEdgeStyle;curved=0;rounded=0;" edge="1" parent="XBxHbqEH50NBFgfwNpSP-52">
          <mxGeometry relative="1" as="geometry">
            <mxPoint x="55" y="420" as="sourcePoint" />
            <Array as="points">
              <mxPoint x="85" y="450" />
            </Array>
            <mxPoint x="60" y="450" as="targetPoint" />
          </mxGeometry>
        </mxCell>
        <mxCell id="XBxHbqEH50NBFgfwNpSP-54" value="" style="html=1;points=[[0,0,0,0,5],[0,1,0,0,-5],[1,0,0,0,5],[1,1,0,0,-5]];perimeter=orthogonalPerimeter;outlineConnect=0;targetShapes=umlLifeline;portConstraint=eastwest;newEdgeStyle={&quot;curved&quot;:0,&quot;rounded&quot;:0};" vertex="1" parent="1">
          <mxGeometry x="1415" y="450" width="10" height="190" as="geometry" />
        </mxCell>
        <mxCell id="XBxHbqEH50NBFgfwNpSP-2" value=": Покупатель" style="shape=umlActor;verticalLabelPosition=bottom;verticalAlign=top;html=1;" vertex="1" parent="1">
          <mxGeometry x="127" y="110" width="30" height="60" as="geometry" />
        </mxCell>
        <mxCell id="XBxHbqEH50NBFgfwNpSP-3" value="" style="html=1;points=[[0,0,0,0,5],[0,1,0,0,-5],[1,0,0,0,5],[1,1,0,0,-5]];perimeter=orthogonalPerimeter;outlineConnect=0;targetShapes=umlLifeline;portConstraint=eastwest;newEdgeStyle={&quot;curved&quot;:0,&quot;rounded&quot;:0};" vertex="1" parent="1">
          <mxGeometry x="137" y="200" width="10" height="880" as="geometry" />
        </mxCell>
        <mxCell id="XBxHbqEH50NBFgfwNpSP-5" value=":Авторизация" style="shape=umlLifeline;perimeter=lifelinePerimeter;whiteSpace=wrap;html=1;container=1;dropTarget=0;collapsible=0;recursiveResize=0;outlineConnect=0;portConstraint=eastwest;newEdgeStyle={&quot;curved&quot;:0,&quot;rounded&quot;:0};" vertex="1" parent="1">
          <mxGeometry x="250" y="120" width="100" height="960" as="geometry" />
        </mxCell>
        <mxCell id="XBxHbqEH50NBFgfwNpSP-6" value="" style="html=1;points=[[0,0,0,0,5],[0,1,0,0,-5],[1,0,0,0,5],[1,1,0,0,-5]];perimeter=orthogonalPerimeter;outlineConnect=0;targetShapes=umlLifeline;portConstraint=eastwest;newEdgeStyle={&quot;curved&quot;:0,&quot;rounded&quot;:0};" vertex="1" parent="XBxHbqEH50NBFgfwNpSP-5">
          <mxGeometry x="45" y="80" width="10" height="240" as="geometry" />
        </mxCell>
        <mxCell id="XBxHbqEH50NBFgfwNpSP-7" value="Ввод данных" style="html=1;verticalAlign=bottom;endArrow=block;curved=0;rounded=0;entryX=0;entryY=0;entryDx=0;entryDy=5;exitX=1;exitY=0;exitDx=0;exitDy=5;exitPerimeter=0;" edge="1" target="XBxHbqEH50NBFgfwNpSP-6" parent="1" source="XBxHbqEH50NBFgfwNpSP-3">
          <mxGeometry relative="1" as="geometry">
            <mxPoint x="225" y="205" as="sourcePoint" />
          </mxGeometry>
        </mxCell>
        <mxCell id="XBxHbqEH50NBFgfwNpSP-13" value=":Доступ" style="shape=umlLifeline;perimeter=lifelinePerimeter;whiteSpace=wrap;html=1;container=1;dropTarget=0;collapsible=0;recursiveResize=0;outlineConnect=0;portConstraint=eastwest;newEdgeStyle={&quot;curved&quot;:0,&quot;rounded&quot;:0};" vertex="1" parent="1">
          <mxGeometry x="410" y="120" width="100" height="960" as="geometry" />
        </mxCell>
        <mxCell id="XBxHbqEH50NBFgfwNpSP-14" value="" style="html=1;points=[[0,0,0,0,5],[0,1,0,0,-5],[1,0,0,0,5],[1,1,0,0,-5]];perimeter=orthogonalPerimeter;outlineConnect=0;targetShapes=umlLifeline;portConstraint=eastwest;newEdgeStyle={&quot;curved&quot;:0,&quot;rounded&quot;:0};" vertex="1" parent="XBxHbqEH50NBFgfwNpSP-13">
          <mxGeometry x="44" y="150" width="10" height="170" as="geometry" />
        </mxCell>
        <mxCell id="XBxHbqEH50NBFgfwNpSP-26" value="" style="html=1;points=[[0,0,0,0,5],[0,1,0,0,-5],[1,0,0,0,5],[1,1,0,0,-5]];perimeter=orthogonalPerimeter;outlineConnect=0;targetShapes=umlLifeline;portConstraint=eastwest;newEdgeStyle={&quot;curved&quot;:0,&quot;rounded&quot;:0};" vertex="1" parent="XBxHbqEH50NBFgfwNpSP-13">
          <mxGeometry x="49" y="250" width="10" height="40" as="geometry" />
        </mxCell>
        <mxCell id="XBxHbqEH50NBFgfwNpSP-27" value="Проверка данных" style="html=1;align=left;spacingLeft=2;endArrow=block;rounded=0;edgeStyle=orthogonalEdgeStyle;curved=0;rounded=0;" edge="1" target="XBxHbqEH50NBFgfwNpSP-26" parent="XBxHbqEH50NBFgfwNpSP-13">
          <mxGeometry relative="1" as="geometry">
            <mxPoint x="54" y="230" as="sourcePoint" />
            <Array as="points">
              <mxPoint x="84" y="260" />
            </Array>
          </mxGeometry>
        </mxCell>
        <mxCell id="XBxHbqEH50NBFgfwNpSP-15" value="Передача данных" style="html=1;verticalAlign=bottom;endArrow=block;curved=0;rounded=0;entryX=0;entryY=0;entryDx=0;entryDy=5;" edge="1" target="XBxHbqEH50NBFgfwNpSP-14" parent="1" source="XBxHbqEH50NBFgfwNpSP-6">
          <mxGeometry relative="1" as="geometry">
            <mxPoint x="310" y="275" as="sourcePoint" />
          </mxGeometry>
        </mxCell>
        <mxCell id="XBxHbqEH50NBFgfwNpSP-16" value="Ошибка авторизации" style="html=1;verticalAlign=bottom;endArrow=open;dashed=1;endSize=8;curved=0;rounded=0;" edge="1" source="XBxHbqEH50NBFgfwNpSP-14" parent="1">
          <mxGeometry relative="1" as="geometry">
            <mxPoint x="305" y="419.9999999999998" as="targetPoint" />
            <mxPoint x="450" y="420" as="sourcePoint" />
          </mxGeometry>
        </mxCell>
        <mxCell id="XBxHbqEH50NBFgfwNpSP-17" value=": Пользователь" style="shape=umlActor;verticalLabelPosition=bottom;verticalAlign=top;html=1;" vertex="1" parent="1">
          <mxGeometry x="604" y="110" width="30" height="60" as="geometry" />
        </mxCell>
        <mxCell id="XBxHbqEH50NBFgfwNpSP-18" value="" style="html=1;points=[[0,0,0,0,5],[0,1,0,0,-5],[1,0,0,0,5],[1,1,0,0,-5]];perimeter=orthogonalPerimeter;outlineConnect=0;targetShapes=umlLifeline;portConstraint=eastwest;newEdgeStyle={&quot;curved&quot;:0,&quot;rounded&quot;:0};" vertex="1" parent="1">
          <mxGeometry x="614" y="200" width="10" height="880" as="geometry" />
        </mxCell>
        <mxCell id="XBxHbqEH50NBFgfwNpSP-21" value="Получение данных" style="html=1;verticalAlign=bottom;endArrow=block;curved=0;rounded=0;entryX=0;entryY=0;entryDx=0;entryDy=5;" edge="1" parent="1" source="XBxHbqEH50NBFgfwNpSP-14">
          <mxGeometry relative="1" as="geometry">
            <mxPoint x="544" y="285" as="sourcePoint" />
            <mxPoint x="614" y="285" as="targetPoint" />
          </mxGeometry>
        </mxCell>
        <mxCell id="XBxHbqEH50NBFgfwNpSP-22" value=":логин, пароль" style="html=1;verticalAlign=bottom;endArrow=open;dashed=1;endSize=8;curved=0;rounded=0;" edge="1" parent="1" target="XBxHbqEH50NBFgfwNpSP-14">
          <mxGeometry relative="1" as="geometry">
            <mxPoint x="544" y="355" as="targetPoint" />
            <mxPoint x="610" y="340" as="sourcePoint" />
          </mxGeometry>
        </mxCell>
        <mxCell id="XBxHbqEH50NBFgfwNpSP-28" value=":Страница поиска" style="shape=umlLifeline;perimeter=lifelinePerimeter;whiteSpace=wrap;html=1;container=1;dropTarget=0;collapsible=0;recursiveResize=0;outlineConnect=0;portConstraint=eastwest;newEdgeStyle={&quot;curved&quot;:0,&quot;rounded&quot;:0};" vertex="1" parent="1">
          <mxGeometry x="730" y="120" width="100" height="960" as="geometry" />
        </mxCell>
        <mxCell id="XBxHbqEH50NBFgfwNpSP-32" value="" style="html=1;points=[[0,0,0,0,5],[0,1,0,0,-5],[1,0,0,0,5],[1,1,0,0,-5]];perimeter=orthogonalPerimeter;outlineConnect=0;targetShapes=umlLifeline;portConstraint=eastwest;newEdgeStyle={&quot;curved&quot;:0,&quot;rounded&quot;:0};" vertex="1" parent="XBxHbqEH50NBFgfwNpSP-28">
          <mxGeometry x="45" y="80" width="10" height="110" as="geometry" />
        </mxCell>
        <mxCell id="XBxHbqEH50NBFgfwNpSP-35" value="" style="html=1;points=[[0,0,0,0,5],[0,1,0,0,-5],[1,0,0,0,5],[1,1,0,0,-5]];perimeter=orthogonalPerimeter;outlineConnect=0;targetShapes=umlLifeline;portConstraint=eastwest;newEdgeStyle={&quot;curved&quot;:0,&quot;rounded&quot;:0};" vertex="1" parent="XBxHbqEH50NBFgfwNpSP-28">
          <mxGeometry x="50" y="120" width="10" height="40" as="geometry" />
        </mxCell>
        <mxCell id="XBxHbqEH50NBFgfwNpSP-36" value="Поисковые критерии" style="html=1;align=left;spacingLeft=2;endArrow=block;rounded=0;edgeStyle=orthogonalEdgeStyle;curved=0;rounded=0;" edge="1" target="XBxHbqEH50NBFgfwNpSP-35" parent="XBxHbqEH50NBFgfwNpSP-28">
          <mxGeometry relative="1" as="geometry">
            <mxPoint x="55" y="100" as="sourcePoint" />
            <Array as="points">
              <mxPoint x="85" y="130" />
            </Array>
          </mxGeometry>
        </mxCell>
        <mxCell id="XBxHbqEH50NBFgfwNpSP-29" value=":Результат поиска" style="shape=umlLifeline;perimeter=lifelinePerimeter;whiteSpace=wrap;html=1;container=1;dropTarget=0;collapsible=0;recursiveResize=0;outlineConnect=0;portConstraint=eastwest;newEdgeStyle={&quot;curved&quot;:0,&quot;rounded&quot;:0};" vertex="1" parent="1">
          <mxGeometry x="890" y="120" width="100" height="960" as="geometry" />
        </mxCell>
        <mxCell id="XBxHbqEH50NBFgfwNpSP-37" value="" style="html=1;points=[[0,0,0,0,5],[0,1,0,0,-5],[1,0,0,0,5],[1,1,0,0,-5]];perimeter=orthogonalPerimeter;outlineConnect=0;targetShapes=umlLifeline;portConstraint=eastwest;newEdgeStyle={&quot;curved&quot;:0,&quot;rounded&quot;:0};" vertex="1" parent="XBxHbqEH50NBFgfwNpSP-29">
          <mxGeometry x="45" y="170" width="10" height="190" as="geometry" />
        </mxCell>
        <mxCell id="XBxHbqEH50NBFgfwNpSP-30" value=":Каталог" style="shape=umlLifeline;perimeter=lifelinePerimeter;whiteSpace=wrap;html=1;container=1;dropTarget=0;collapsible=0;recursiveResize=0;outlineConnect=0;portConstraint=eastwest;newEdgeStyle={&quot;curved&quot;:0,&quot;rounded&quot;:0};" vertex="1" parent="1">
          <mxGeometry x="1050" y="120" width="100" height="960" as="geometry" />
        </mxCell>
        <mxCell id="XBxHbqEH50NBFgfwNpSP-43" value="" style="html=1;points=[[0,0,0,0,5],[0,1,0,0,-5],[1,0,0,0,5],[1,1,0,0,-5]];perimeter=orthogonalPerimeter;outlineConnect=0;targetShapes=umlLifeline;portConstraint=eastwest;newEdgeStyle={&quot;curved&quot;:0,&quot;rounded&quot;:0};" vertex="1" parent="XBxHbqEH50NBFgfwNpSP-30">
          <mxGeometry x="44" y="230" width="10" height="80" as="geometry" />
        </mxCell>
        <mxCell id="XBxHbqEH50NBFgfwNpSP-44" value="Поиск товара в каталоге" style="html=1;verticalAlign=bottom;endArrow=block;curved=0;rounded=0;entryX=0;entryY=0;entryDx=0;entryDy=5;" edge="1" target="XBxHbqEH50NBFgfwNpSP-43" parent="XBxHbqEH50NBFgfwNpSP-30">
          <mxGeometry x="0.0007" relative="1" as="geometry">
            <mxPoint x="-426" y="235" as="sourcePoint" />
            <mxPoint as="offset" />
          </mxGeometry>
        </mxCell>
        <mxCell id="XBxHbqEH50NBFgfwNpSP-31" value=":Товар" style="shape=umlLifeline;perimeter=lifelinePerimeter;whiteSpace=wrap;html=1;container=1;dropTarget=0;collapsible=0;recursiveResize=0;outlineConnect=0;portConstraint=eastwest;newEdgeStyle={&quot;curved&quot;:0,&quot;rounded&quot;:0};" vertex="1" parent="1">
          <mxGeometry x="1210" y="120" width="100" height="960" as="geometry" />
        </mxCell>
        <mxCell id="XBxHbqEH50NBFgfwNpSP-33" value="Поиск товара в поисковике" style="html=1;verticalAlign=bottom;endArrow=block;curved=0;rounded=0;entryX=0;entryY=0;entryDx=0;entryDy=5;exitX=1;exitY=0;exitDx=0;exitDy=5;exitPerimeter=0;" edge="1" target="XBxHbqEH50NBFgfwNpSP-32" parent="1" source="XBxHbqEH50NBFgfwNpSP-18">
          <mxGeometry relative="1" as="geometry">
            <mxPoint x="704" y="205" as="sourcePoint" />
          </mxGeometry>
        </mxCell>
        <mxCell id="XBxHbqEH50NBFgfwNpSP-38" value="Вывод результатов" style="html=1;verticalAlign=bottom;endArrow=block;curved=0;rounded=0;entryX=0;entryY=0;entryDx=0;entryDy=5;" edge="1" target="XBxHbqEH50NBFgfwNpSP-37" parent="1" source="XBxHbqEH50NBFgfwNpSP-32">
          <mxGeometry relative="1" as="geometry">
            <mxPoint x="865" y="295" as="sourcePoint" />
          </mxGeometry>
        </mxCell>
        <mxCell id="XBxHbqEH50NBFgfwNpSP-45" value="Вывод результатов" style="html=1;verticalAlign=bottom;endArrow=open;dashed=1;endSize=8;curved=0;rounded=0;exitX=0;exitY=1;exitDx=0;exitDy=-5;" edge="1" source="XBxHbqEH50NBFgfwNpSP-43" parent="1">
          <mxGeometry relative="1" as="geometry">
            <mxPoint x="945" y="425" as="targetPoint" />
          </mxGeometry>
        </mxCell>
        <mxCell id="XBxHbqEH50NBFgfwNpSP-50" value="Выбор товара" style="html=1;verticalAlign=bottom;endArrow=block;curved=0;rounded=0;entryX=0;entryY=0;entryDx=0;entryDy=5;" edge="1" target="XBxHbqEH50NBFgfwNpSP-49" parent="1" source="XBxHbqEH50NBFgfwNpSP-37">
          <mxGeometry relative="1" as="geometry">
            <mxPoint x="1185" y="315" as="sourcePoint" />
          </mxGeometry>
        </mxCell>
        <mxCell id="XBxHbqEH50NBFgfwNpSP-55" value="Добавление товара" style="html=1;verticalAlign=bottom;endArrow=block;curved=0;rounded=0;entryX=0;entryY=0;entryDx=0;entryDy=5;" edge="1" target="XBxHbqEH50NBFgfwNpSP-54" parent="1" source="XBxHbqEH50NBFgfwNpSP-49">
          <mxGeometry relative="1" as="geometry">
            <mxPoint x="1345" y="335" as="sourcePoint" />
          </mxGeometry>
        </mxCell>
        <mxCell id="XBxHbqEH50NBFgfwNpSP-57" value="Добавление товара" style="html=1;verticalAlign=bottom;endArrow=block;curved=0;rounded=0;entryX=0;entryY=0;entryDx=0;entryDy=5;" edge="1" parent="1">
          <mxGeometry relative="1" as="geometry">
            <mxPoint x="1265" y="520" as="sourcePoint" />
            <mxPoint x="1415" y="520" as="targetPoint" />
          </mxGeometry>
        </mxCell>
        <mxCell id="XBxHbqEH50NBFgfwNpSP-58" value="Добавление товара" style="html=1;verticalAlign=bottom;endArrow=block;curved=0;rounded=0;entryX=0;entryY=0;entryDx=0;entryDy=5;" edge="1" parent="1">
          <mxGeometry relative="1" as="geometry">
            <mxPoint x="1265" y="488.4099999999996" as="sourcePoint" />
            <mxPoint x="1415" y="488.40999999999997" as="targetPoint" />
          </mxGeometry>
        </mxCell>
        <mxCell id="XBxHbqEH50NBFgfwNpSP-49" value="" style="html=1;points=[[0,0,0,0,5],[0,1,0,0,-5],[1,0,0,0,5],[1,1,0,0,-5]];perimeter=orthogonalPerimeter;outlineConnect=0;targetShapes=umlLifeline;portConstraint=eastwest;newEdgeStyle={&quot;curved&quot;:0,&quot;rounded&quot;:0};" vertex="1" parent="1">
          <mxGeometry x="1255" y="450" width="10" height="80" as="geometry" />
        </mxCell>
        <mxCell id="XBxHbqEH50NBFgfwNpSP-62" value="" style="html=1;points=[[0,0,0,0,5],[0,1,0,0,-5],[1,0,0,0,5],[1,1,0,0,-5]];perimeter=orthogonalPerimeter;outlineConnect=0;targetShapes=umlLifeline;portConstraint=eastwest;newEdgeStyle={&quot;curved&quot;:0,&quot;rounded&quot;:0};" vertex="1" parent="1">
          <mxGeometry x="1420" y="560" width="10" height="40" as="geometry" />
        </mxCell>
        <mxCell id="XBxHbqEH50NBFgfwNpSP-63" value=":Заказ" style="shape=umlLifeline;perimeter=lifelinePerimeter;whiteSpace=wrap;html=1;container=1;dropTarget=0;collapsible=0;recursiveResize=0;outlineConnect=0;portConstraint=eastwest;newEdgeStyle={&quot;curved&quot;:0,&quot;rounded&quot;:0};" vertex="1" parent="1">
          <mxGeometry x="1530" y="120" width="100" height="960" as="geometry" />
        </mxCell>
        <mxCell id="XBxHbqEH50NBFgfwNpSP-64" value="" style="html=1;points=[[0,0,0,0,5],[0,1,0,0,-5],[1,0,0,0,5],[1,1,0,0,-5]];perimeter=orthogonalPerimeter;outlineConnect=0;targetShapes=umlLifeline;portConstraint=eastwest;newEdgeStyle={&quot;curved&quot;:0,&quot;rounded&quot;:0};" vertex="1" parent="XBxHbqEH50NBFgfwNpSP-63">
          <mxGeometry x="45" y="495" width="10" height="65" as="geometry" />
        </mxCell>
        <mxCell id="XBxHbqEH50NBFgfwNpSP-65" value="Формирование заказа" style="html=1;verticalAlign=bottom;endArrow=block;curved=0;rounded=0;entryX=0;entryY=0;entryDx=0;entryDy=5;" edge="1" target="XBxHbqEH50NBFgfwNpSP-64" parent="1" source="XBxHbqEH50NBFgfwNpSP-54">
          <mxGeometry relative="1" as="geometry">
            <mxPoint x="1505" y="620" as="sourcePoint" />
          </mxGeometry>
        </mxCell>
        <mxCell id="XBxHbqEH50NBFgfwNpSP-67" value=":Счет" style="shape=umlLifeline;perimeter=lifelinePerimeter;whiteSpace=wrap;html=1;container=1;dropTarget=0;collapsible=0;recursiveResize=0;outlineConnect=0;portConstraint=eastwest;newEdgeStyle={&quot;curved&quot;:0,&quot;rounded&quot;:0};" vertex="1" parent="1">
          <mxGeometry x="1690" y="120" width="100" height="960" as="geometry" />
        </mxCell>
        <mxCell id="XBxHbqEH50NBFgfwNpSP-69" value="" style="html=1;points=[[0,0,0,0,5],[0,1,0,0,-5],[1,0,0,0,5],[1,1,0,0,-5]];perimeter=orthogonalPerimeter;outlineConnect=0;targetShapes=umlLifeline;portConstraint=eastwest;newEdgeStyle={&quot;curved&quot;:0,&quot;rounded&quot;:0};" vertex="1" parent="XBxHbqEH50NBFgfwNpSP-67">
          <mxGeometry x="45" y="510" width="10" height="280" as="geometry" />
        </mxCell>
        <mxCell id="XBxHbqEH50NBFgfwNpSP-75" value="" style="html=1;points=[[0,0,0,0,5],[0,1,0,0,-5],[1,0,0,0,5],[1,1,0,0,-5]];perimeter=orthogonalPerimeter;outlineConnect=0;targetShapes=umlLifeline;portConstraint=eastwest;newEdgeStyle={&quot;curved&quot;:0,&quot;rounded&quot;:0};" vertex="1" parent="XBxHbqEH50NBFgfwNpSP-67">
          <mxGeometry x="50" y="610" width="10" height="100" as="geometry" />
        </mxCell>
        <mxCell id="XBxHbqEH50NBFgfwNpSP-70" value="Выписка счета" style="html=1;verticalAlign=bottom;endArrow=block;curved=0;rounded=0;entryX=0;entryY=0;entryDx=0;entryDy=5;" edge="1" target="XBxHbqEH50NBFgfwNpSP-69" parent="1" source="XBxHbqEH50NBFgfwNpSP-64">
          <mxGeometry relative="1" as="geometry">
            <mxPoint x="1665" y="635" as="sourcePoint" />
          </mxGeometry>
        </mxCell>
        <mxCell id="XBxHbqEH50NBFgfwNpSP-74" value="Платежная форма" style="html=1;verticalAlign=bottom;endArrow=open;dashed=1;endSize=8;curved=0;rounded=0;exitX=0;exitY=1;exitDx=0;exitDy=-5;exitPerimeter=0;" edge="1" parent="1">
          <mxGeometry relative="1" as="geometry">
            <mxPoint x="1735" y="710" as="sourcePoint" />
            <mxPoint x="624" y="710" as="targetPoint" />
          </mxGeometry>
        </mxCell>
        <mxCell id="XBxHbqEH50NBFgfwNpSP-76" value="Ввод реквизитов карты" style="html=1;verticalAlign=bottom;endArrow=block;curved=0;rounded=0;entryX=0;entryY=0;entryDx=0;entryDy=5;" edge="1" target="XBxHbqEH50NBFgfwNpSP-75" parent="1" source="XBxHbqEH50NBFgfwNpSP-18">
          <mxGeometry relative="1" as="geometry">
            <mxPoint x="1670" y="735" as="sourcePoint" />
          </mxGeometry>
        </mxCell>
        <mxCell id="XBxHbqEH50NBFgfwNpSP-78" value=":Платежная система" style="shape=umlActor;verticalLabelPosition=bottom;verticalAlign=top;html=1;" vertex="1" parent="1">
          <mxGeometry x="1890" y="110" width="30" height="60" as="geometry" />
        </mxCell>
        <mxCell id="XBxHbqEH50NBFgfwNpSP-79" value="" style="html=1;points=[[0,0,0,0,5],[0,1,0,0,-5],[1,0,0,0,5],[1,1,0,0,-5]];perimeter=orthogonalPerimeter;outlineConnect=0;targetShapes=umlLifeline;portConstraint=eastwest;newEdgeStyle={&quot;curved&quot;:0,&quot;rounded&quot;:0};" vertex="1" parent="1">
          <mxGeometry x="1900" y="200" width="10" height="880" as="geometry" />
        </mxCell>
        <mxCell id="XBxHbqEH50NBFgfwNpSP-81" value="Проверка реквизитов" style="html=1;verticalAlign=bottom;endArrow=block;curved=0;rounded=0;" edge="1" parent="1">
          <mxGeometry width="80" relative="1" as="geometry">
            <mxPoint x="1750" y="750" as="sourcePoint" />
            <mxPoint x="1900" y="750" as="targetPoint" />
          </mxGeometry>
        </mxCell>
        <mxCell id="XBxHbqEH50NBFgfwNpSP-82" value="" style="html=1;points=[[0,0,0,0,5],[0,1,0,0,-5],[1,0,0,0,5],[1,1,0,0,-5]];perimeter=orthogonalPerimeter;outlineConnect=0;targetShapes=umlLifeline;portConstraint=eastwest;newEdgeStyle={&quot;curved&quot;:0,&quot;rounded&quot;:0};" vertex="1" parent="1">
          <mxGeometry x="1906" y="790" width="10" height="40" as="geometry" />
        </mxCell>
        <mxCell id="XBxHbqEH50NBFgfwNpSP-83" value="Списание денюшек" style="html=1;align=left;spacingLeft=2;endArrow=block;rounded=0;edgeStyle=orthogonalEdgeStyle;curved=0;rounded=0;" edge="1" target="XBxHbqEH50NBFgfwNpSP-82" parent="1">
          <mxGeometry relative="1" as="geometry">
            <mxPoint x="1911" y="770" as="sourcePoint" />
            <Array as="points">
              <mxPoint x="1941" y="800" />
            </Array>
          </mxGeometry>
        </mxCell>
        <mxCell id="XBxHbqEH50NBFgfwNpSP-84" value="" style="html=1;points=[[0,0,0,0,5],[0,1,0,0,-5],[1,0,0,0,5],[1,1,0,0,-5]];perimeter=orthogonalPerimeter;outlineConnect=0;targetShapes=umlLifeline;portConstraint=eastwest;newEdgeStyle={&quot;curved&quot;:0,&quot;rounded&quot;:0};" vertex="1" parent="1">
          <mxGeometry x="1906" y="860" width="10" height="40" as="geometry" />
        </mxCell>
        <mxCell id="XBxHbqEH50NBFgfwNpSP-85" value="Обновление статуса&amp;nbsp;&lt;div&gt;платежа&lt;/div&gt;" style="html=1;align=left;spacingLeft=2;endArrow=block;rounded=0;edgeStyle=orthogonalEdgeStyle;curved=0;rounded=0;" edge="1" target="XBxHbqEH50NBFgfwNpSP-84" parent="1">
          <mxGeometry relative="1" as="geometry">
            <mxPoint x="1911" y="840" as="sourcePoint" />
            <Array as="points">
              <mxPoint x="1941" y="870" />
            </Array>
          </mxGeometry>
        </mxCell>
        <mxCell id="XBxHbqEH50NBFgfwNpSP-86" value="Закрытие счета" style="html=1;verticalAlign=bottom;endArrow=open;dashed=1;endSize=8;curved=0;rounded=0;entryX=1;entryY=1;entryDx=0;entryDy=-5;entryPerimeter=0;" edge="1" parent="1" source="XBxHbqEH50NBFgfwNpSP-79" target="XBxHbqEH50NBFgfwNpSP-69">
          <mxGeometry relative="1" as="geometry">
            <mxPoint x="1860" y="920" as="sourcePoint" />
            <mxPoint x="1780" y="920" as="targetPoint" />
          </mxGeometry>
        </mxCell>
        <mxCell id="XBxHbqEH50NBFgfwNpSP-87" value="" style="html=1;points=[[0,0,0,0,5],[0,1,0,0,-5],[1,0,0,0,5],[1,1,0,0,-5]];perimeter=orthogonalPerimeter;outlineConnect=0;targetShapes=umlLifeline;portConstraint=eastwest;newEdgeStyle={&quot;curved&quot;:0,&quot;rounded&quot;:0};" vertex="1" parent="1">
          <mxGeometry x="1575" y="940" width="10" height="80" as="geometry" />
        </mxCell>
        <mxCell id="XBxHbqEH50NBFgfwNpSP-88" value="Подтверждение заказа" style="html=1;verticalAlign=bottom;endArrow=open;dashed=1;endSize=8;curved=0;rounded=0;entryX=1;entryY=0;entryDx=0;entryDy=5;entryPerimeter=0;" edge="1" parent="1" source="XBxHbqEH50NBFgfwNpSP-79" target="XBxHbqEH50NBFgfwNpSP-87">
          <mxGeometry relative="1" as="geometry">
            <mxPoint x="1880" y="950" as="sourcePoint" />
            <mxPoint x="1800" y="950" as="targetPoint" />
          </mxGeometry>
        </mxCell>
        <mxCell id="XBxHbqEH50NBFgfwNpSP-89" value=":Курьер" style="shape=umlActor;verticalLabelPosition=bottom;verticalAlign=top;html=1;" vertex="1" parent="1">
          <mxGeometry x="2045" y="110" width="30" height="60" as="geometry" />
        </mxCell>
        <mxCell id="XBxHbqEH50NBFgfwNpSP-90" value="" style="html=1;points=[[0,0,0,0,5],[0,1,0,0,-5],[1,0,0,0,5],[1,1,0,0,-5]];perimeter=orthogonalPerimeter;outlineConnect=0;targetShapes=umlLifeline;portConstraint=eastwest;newEdgeStyle={&quot;curved&quot;:0,&quot;rounded&quot;:0};" vertex="1" parent="1">
          <mxGeometry x="2055" y="200" width="10" height="880" as="geometry" />
        </mxCell>
        <mxCell id="XBxHbqEH50NBFgfwNpSP-91" value="Передача данных о пользователе" style="html=1;verticalAlign=bottom;endArrow=block;curved=0;rounded=0;exitX=1;exitY=1;exitDx=0;exitDy=-5;exitPerimeter=0;" edge="1" parent="1" source="XBxHbqEH50NBFgfwNpSP-87" target="XBxHbqEH50NBFgfwNpSP-90">
          <mxGeometry width="80" relative="1" as="geometry">
            <mxPoint x="1770" y="1040" as="sourcePoint" />
            <mxPoint x="1850" y="1040" as="targetPoint" />
          </mxGeometry>
        </mxCell>
        <mxCell id="XBxHbqEH50NBFgfwNpSP-93" value="Доставка товара" style="html=1;verticalAlign=bottom;endArrow=open;dashed=1;endSize=8;curved=0;rounded=0;exitX=0;exitY=1;exitDx=0;exitDy=-5;exitPerimeter=0;entryX=1;entryY=1;entryDx=0;entryDy=-5;entryPerimeter=0;" edge="1" parent="1" source="XBxHbqEH50NBFgfwNpSP-90" target="XBxHbqEH50NBFgfwNpSP-18">
          <mxGeometry x="0.0002" relative="1" as="geometry">
            <mxPoint x="1906" y="1079.39" as="sourcePoint" />
            <mxPoint x="1826" y="1079.39" as="targetPoint" />
            <mxPoint as="offset" />
          </mxGeometry>
        </mxCell>
      </root>
    </mxGraphModel>
  </diagram>
</mxfile>
